packets_and_frames.packet.0.codec_type="audio"
packets_and_frames.packet.0.stream_index=0
packets_and_frames.packet.0.pts=0
packets_and_frames.packet.0.pts_time="0.000000"
packets_and_frames.packet.0.dts=0
packets_and_frames.packet.0.dts_time="0.000000"
packets_and_frames.packet.0.duration=1024
packets_and_frames.packet.0.duration_time="0.023220"
packets_and_frames.packet.0.convergence_duration="N/A"
packets_and_frames.packet.0.convergence_duration_time="N/A"
packets_and_frames.packet.0.size="2048"
packets_and_frames.packet.0.pos="403"
packets_and_frames.packet.0.flags="K"
packets_and_frames.frame.0.media_type="audio"
packets_and_frames.frame.0.key_frame=1
packets_and_frames.frame.0.pkt_pts=0
packets_and_frames.frame.0.pkt_pts_time="0.000000"
packets_and_frames.frame.0.pkt_dts=0
packets_and_frames.frame.0.pkt_dts_time="0.000000"
packets_and_frames.frame.0.pkt_duration=1024
packets_and_frames.frame.0.pkt_duration_time="0.023220"
packets_and_frames.frame.0.pkt_pos="403"
packets_and_frames.frame.0.sample_fmt="s16"
packets_and_frames.frame.0.nb_samples=1024
packets_and_frames.frame.0.channels=1
packets_and_frames.frame.0.channel_layout="unknown"
packets_and_frames.packet.1.codec_type="video"
packets_and_frames.packet.1.stream_index=1
packets_and_frames.packet.1.pts=0
packets_and_frames.packet.1.pts_time="0.000000"
packets_and_frames.packet.1.dts=0
packets_and_frames.packet.1.dts_time="0.000000"
packets_and_frames.packet.1.duration=1
packets_and_frames.packet.1.duration_time="0.040000"
packets_and_frames.packet.1.convergence_duration="N/A"
packets_and_frames.packet.1.convergence_duration_time="N/A"
packets_and_frames.packet.1.size="230400"
packets_and_frames.packet.1.pos="2478"
packets_and_frames.packet.1.flags="K"
packets_and_frames.frame.1.media_type="video"
packets_and_frames.frame.1.key_frame=1
packets_and_frames.frame.1.pkt_pts=0
packets_and_frames.frame.1.pkt_pts_time="0.000000"
packets_and_frames.frame.1.pkt_dts=0
packets_and_frames.frame.1.pkt_dts_time="0.000000"
packets_and_frames.frame.1.pkt_duration=1
packets_and_frames.frame.1.pkt_duration_time="0.040000"
packets_and_frames.frame.1.pkt_pos="2478"
packets_and_frames.frame.1.width=320
packets_and_frames.frame.1.height=240
packets_and_frames.frame.1.pix_fmt="rgb24"
packets_and_frames.frame.1.sample_aspect_ratio="1:1"
packets_and_frames.frame.1.pict_type="I"
packets_and_frames.frame.1.coded_picture_number=0
packets_and_frames.frame.1.display_picture_number=0
packets_and_frames.frame.1.interlaced_frame=0
packets_and_frames.frame.1.top_field_first=0
packets_and_frames.frame.1.repeat_pict=0
packets_and_frames.frame.1.reference=0
packets_and_frames.packet.2.codec_type="video"
packets_and_frames.packet.2.stream_index=2
packets_and_frames.packet.2.pts=0
packets_and_frames.packet.2.pts_time="0.000000"
packets_and_frames.packet.2.dts=0
packets_and_frames.packet.2.dts_time="0.000000"
packets_and_frames.packet.2.duration=1
packets_and_frames.packet.2.duration_time="0.040000"
packets_and_frames.packet.2.convergence_duration="N/A"
packets_and_frames.packet.2.convergence_duration_time="N/A"
packets_and_frames.packet.2.size="30000"
packets_and_frames.packet.2.pos="232899"
packets_and_frames.packet.2.flags="K"
packets_and_frames.frame.2.media_type="video"
packets_and_frames.frame.2.key_frame=1
packets_and_frames.frame.2.pkt_pts=0
packets_and_frames.frame.2.pkt_pts_time="0.000000"
packets_and_frames.frame.2.pkt_dts=0
packets_and_frames.frame.2.pkt_dts_time="0.000000"
packets_and_frames.frame.2.pkt_duration=1
packets_and_frames.frame.2.pkt_duration_time="0.040000"
packets_and_frames.frame.2.pkt_pos="232899"
packets_and_frames.frame.2.width=100
packets_and_frames.frame.2.height=100
packets_and_frames.frame.2.pix_fmt="rgb24"
packets_and_frames.frame.2.sample_aspect_ratio="1:1"
packets_and_frames.frame.2.pict_type="I"
packets_and_frames.frame.2.coded_picture_number=0
packets_and_frames.frame.2.display_picture_number=0
packets_and_frames.frame.2.interlaced_frame=0
packets_and_frames.frame.2.top_field_first=0
packets_and_frames.frame.2.repeat_pict=0
packets_and_frames.frame.2.reference=0
packets_and_frames.packet.3.codec_type="audio"
packets_and_frames.packet.3.stream_index=0
packets_and_frames.packet.3.pts=1024
packets_and_frames.packet.3.pts_time="0.023220"
packets_and_frames.packet.3.dts=1024
packets_and_frames.packet.3.dts_time="0.023220"
packets_and_frames.packet.3.duration=1024
packets_and_frames.packet.3.duration_time="0.023220"
packets_and_frames.packet.3.convergence_duration="N/A"
packets_and_frames.packet.3.convergence_duration_time="N/A"
packets_and_frames.packet.3.size="2048"
packets_and_frames.packet.3.pos="262904"
packets_and_frames.packet.3.flags="K"
packets_and_frames.frame.3.media_type="audio"
packets_and_frames.frame.3.key_frame=1
packets_and_frames.frame.3.pkt_pts=1024
packets_and_frames.frame.3.pkt_pts_time="0.023220"
packets_and_frames.frame.3.pkt_dts=1024
packets_and_frames.frame.3.pkt_dts_time="0.023220"
packets_and_frames.frame.3.pkt_duration=1024
packets_and_frames.frame.3.pkt_duration_time="0.023220"
packets_and_frames.frame.3.pkt_pos="262904"
packets_and_frames.frame.3.sample_fmt="s16"
packets_and_frames.frame.3.nb_samples=1024
packets_and_frames.frame.3.channels=1
packets_and_frames.frame.3.channel_layout="unknown"
packets_and_frames.packet.4.codec_type="video"
packets_and_frames.packet.4.stream_index=1
packets_and_frames.packet.4.pts=1
packets_and_frames.packet.4.pts_time="0.040000"
packets_and_frames.packet.4.dts=1
packets_and_frames.packet.4.dts_time="0.040000"
packets_and_frames.packet.4.duration=1
packets_and_frames.packet.4.duration_time="0.040000"
packets_and_frames.packet.4.convergence_duration="N/A"
packets_and_frames.packet.4.convergence_duration_time="N/A"
packets_and_frames.packet.4.size="230400"
packets_and_frames.packet.4.pos="264980"
packets_and_frames.packet.4.flags="K"
packets_and_frames.frame.4.media_type="video"
packets_and_frames.frame.4.key_frame=1
packets_and_frames.frame.4.pkt_pts=1
packets_and_frames.frame.4.pkt_pts_time="0.040000"
packets_and_frames.frame.4.pkt_dts=1
packets_and_frames.frame.4.pkt_dts_time="0.040000"
packets_and_frames.frame.4.pkt_duration=1
packets_and_frames.frame.4.pkt_duration_time="0.040000"
packets_and_frames.frame.4.pkt_pos="264980"
packets_and_frames.frame.4.width=320
packets_and_frames.frame.4.height=240
packets_and_frames.frame.4.pix_fmt="rgb24"
packets_and_frames.frame.4.sample_aspect_ratio="1:1"
packets_and_frames.frame.4.pict_type="I"
packets_and_frames.frame.4.coded_picture_number=0
packets_and_frames.frame.4.display_picture_number=0
packets_and_frames.frame.4.interlaced_frame=0
packets_and_frames.frame.4.top_field_first=0
packets_and_frames.frame.4.repeat_pict=0
packets_and_frames.frame.4.reference=0
packets_and_frames.packet.5.codec_type="video"
packets_and_frames.packet.5.stream_index=2
packets_and_frames.packet.5.pts=1
packets_and_frames.packet.5.pts_time="0.040000"
packets_and_frames.packet.5.dts=1
packets_and_frames.packet.5.dts_time="0.040000"
packets_and_frames.packet.5.duration=1
packets_and_frames.packet.5.duration_time="0.040000"
packets_and_frames.packet.5.convergence_duration="N/A"
packets_and_frames.packet.5.convergence_duration_time="N/A"
packets_and_frames.packet.5.size="30000"
packets_and_frames.packet.5.pos="495402"
packets_and_frames.packet.5.flags="K"
packets_and_frames.frame.5.media_type="video"
packets_and_frames.frame.5.key_frame=1
packets_and_frames.frame.5.pkt_pts=1
packets_and_frames.frame.5.pkt_pts_time="0.040000"
packets_and_frames.frame.5.pkt_dts=1
packets_and_frames.frame.5.pkt_dts_time="0.040000"
packets_and_frames.frame.5.pkt_duration=1
packets_and_frames.frame.5.pkt_duration_time="0.040000"
packets_and_frames.frame.5.pkt_pos="495402"
packets_and_frames.frame.5.width=100
packets_and_frames.frame.5.height=100
packets_and_frames.frame.5.pix_fmt="rgb24"
packets_and_frames.frame.5.sample_aspect_ratio="1:1"
packets_and_frames.frame.5.pict_type="I"
packets_and_frames.frame.5.coded_picture_number=0
packets_and_frames.frame.5.display_picture_number=0
packets_and_frames.frame.5.interlaced_frame=0
packets_and_frames.frame.5.top_field_first=0
packets_and_frames.frame.5.repeat_pict=0
packets_and_frames.frame.5.reference=0
packets_and_frames.packet.6.codec_type="audio"
packets_and_frames.packet.6.stream_index=0
packets_and_frames.packet.6.pts=2048
packets_and_frames.packet.6.pts_time="0.046440"
packets_and_frames.packet.6.dts=2048
packets_and_frames.packet.6.dts_time="0.046440"
packets_and_frames.packet.6.duration=1024
packets_and_frames.packet.6.duration_time="0.023220"
packets_and_frames.packet.6.convergence_duration="N/A"
packets_and_frames.packet.6.convergence_duration_time="N/A"
packets_and_frames.packet.6.size="2048"
packets_and_frames.packet.6.pos="525407"
packets_and_frames.packet.6.flags="K"
packets_and_frames.frame.6.media_type="audio"
packets_and_frames.frame.6.key_frame=1
packets_and_frames.frame.6.pkt_pts=2048
packets_and_frames.frame.6.pkt_pts_time="0.046440"
packets_and_frames.frame.6.pkt_dts=2048
packets_and_frames.frame.6.pkt_dts_time="0.046440"
packets_and_frames.frame.6.pkt_duration=1024
packets_and_frames.frame.6.pkt_duration_time="0.023220"
packets_and_frames.frame.6.pkt_pos="525407"
packets_and_frames.frame.6.sample_fmt="s16"
packets_and_frames.frame.6.nb_samples=1024
packets_and_frames.frame.6.channels=1
packets_and_frames.frame.6.channel_layout="unknown"
packets_and_frames.packet.7.codec_type="audio"
packets_and_frames.packet.7.stream_index=0
packets_and_frames.packet.7.pts=3072
packets_and_frames.packet.7.pts_time="0.069660"
packets_and_frames.packet.7.dts=3072
packets_and_frames.packet.7.dts_time="0.069660"
packets_and_frames.packet.7.duration=1024
packets_and_frames.packet.7.duration_time="0.023220"
packets_and_frames.packet.7.convergence_duration="N/A"
packets_and_frames.packet.7.convergence_duration_time="N/A"
packets_and_frames.packet.7.size="2048"
packets_and_frames.packet.7.pos="527478"
packets_and_frames.packet.7.flags="K"
packets_and_frames.frame.7.media_type="audio"
packets_and_frames.frame.7.key_frame=1
packets_and_frames.frame.7.pkt_pts=3072
packets_and_frames.frame.7.pkt_pts_time="0.069660"
packets_and_frames.frame.7.pkt_dts=3072
packets_and_frames.frame.7.pkt_dts_time="0.069660"
packets_and_frames.frame.7.pkt_duration=1024
packets_and_frames.frame.7.pkt_duration_time="0.023220"
packets_and_frames.frame.7.pkt_pos="527478"
packets_and_frames.frame.7.sample_fmt="s16"
packets_and_frames.frame.7.nb_samples=1024
packets_and_frames.frame.7.channels=1
packets_and_frames.frame.7.channel_layout="unknown"
packets_and_frames.packet.8.codec_type="video"
packets_and_frames.packet.8.stream_index=1
packets_and_frames.packet.8.pts=2
packets_and_frames.packet.8.pts_time="0.080000"
packets_and_frames.packet.8.dts=2
packets_and_frames.packet.8.dts_time="0.080000"
packets_and_frames.packet.8.duration=1
packets_and_frames.packet.8.duration_time="0.040000"
packets_and_frames.packet.8.convergence_duration="N/A"
packets_and_frames.packet.8.convergence_duration_time="N/A"
packets_and_frames.packet.8.size="230400"
packets_and_frames.packet.8.pos="529554"
packets_and_frames.packet.8.flags="K"
packets_and_frames.frame.8.media_type="video"
packets_and_frames.frame.8.key_frame=1
packets_and_frames.frame.8.pkt_pts=2
packets_and_frames.frame.8.pkt_pts_time="0.080000"
packets_and_frames.frame.8.pkt_dts=2
packets_and_frames.frame.8.pkt_dts_time="0.080000"
packets_and_frames.frame.8.pkt_duration=1
packets_and_frames.frame.8.pkt_duration_time="0.040000"
packets_and_frames.frame.8.pkt_pos="529554"
packets_and_frames.frame.8.width=320
packets_and_frames.frame.8.height=240
packets_and_frames.frame.8.pix_fmt="rgb24"
packets_and_frames.frame.8.sample_aspect_ratio="1:1"
packets_and_frames.frame.8.pict_type="I"
packets_and_frames.frame.8.coded_picture_number=0
packets_and_frames.frame.8.display_picture_number=0
packets_and_frames.frame.8.interlaced_frame=0
packets_and_frames.frame.8.top_field_first=0
packets_and_frames.frame.8.repeat_pict=0
packets_and_frames.frame.8.reference=0
packets_and_frames.packet.9.codec_type="video"
packets_and_frames.packet.9.stream_index=2
packets_and_frames.packet.9.pts=2
packets_and_frames.packet.9.pts_time="0.080000"
packets_and_frames.packet.9.dts=2
packets_and_frames.packet.9.dts_time="0.080000"
packets_and_frames.packet.9.duration=1
packets_and_frames.packet.9.duration_time="0.040000"
packets_and_frames.packet.9.convergence_duration="N/A"
packets_and_frames.packet.9.convergence_duration_time="N/A"
packets_and_frames.packet.9.size="30000"
packets_and_frames.packet.9.pos="759976"
packets_and_frames.packet.9.flags="K"
packets_and_frames.frame.9.media_type="video"
packets_and_frames.frame.9.key_frame=1
packets_and_frames.frame.9.pkt_pts=2
packets_and_frames.frame.9.pkt_pts_time="0.080000"
packets_and_frames.frame.9.pkt_dts=2
packets_and_frames.frame.9.pkt_dts_time="0.080000"
packets_and_frames.frame.9.pkt_duration=1
packets_and_frames.frame.9.pkt_duration_time="0.040000"
packets_and_frames.frame.9.pkt_pos="759976"
packets_and_frames.frame.9.width=100
packets_and_frames.frame.9.height=100
packets_and_frames.frame.9.pix_fmt="rgb24"
packets_and_frames.frame.9.sample_aspect_ratio="1:1"
packets_and_frames.frame.9.pict_type="I"
packets_and_frames.frame.9.coded_picture_number=0
packets_and_frames.frame.9.display_picture_number=0
packets_and_frames.frame.9.interlaced_frame=0
packets_and_frames.frame.9.top_field_first=0
packets_and_frames.frame.9.repeat_pict=0
packets_and_frames.frame.9.reference=0
packets_and_frames.packet.10.codec_type="audio"
packets_and_frames.packet.10.stream_index=0
packets_and_frames.packet.10.pts=4096
packets_and_frames.packet.10.pts_time="0.092880"
packets_and_frames.packet.10.dts=4096
packets_and_frames.packet.10.dts_time="0.092880"
packets_and_frames.packet.10.duration=1024
packets_and_frames.packet.10.duration_time="0.023220"
packets_and_frames.packet.10.convergence_duration="N/A"
packets_and_frames.packet.10.convergence_duration_time="N/A"
packets_and_frames.packet.10.size="2048"
packets_and_frames.packet.10.pos="789981"
packets_and_frames.packet.10.flags="K"
packets_and_frames.frame.10.media_type="audio"
packets_and_frames.frame.10.key_frame=1
packets_and_frames.frame.10.pkt_pts=4096
packets_and_frames.frame.10.pkt_pts_time="0.092880"
packets_and_frames.frame.10.pkt_dts=4096
packets_and_frames.frame.10.pkt_dts_time="0.092880"
packets_and_frames.frame.10.pkt_duration=1024
packets_and_frames.frame.10.pkt_duration_time="0.023220"
packets_and_frames.frame.10.pkt_pos="789981"
packets_and_frames.frame.10.sample_fmt="s16"
packets_and_frames.frame.10.nb_samples=1024
packets_and_frames.frame.10.channels=1
packets_and_frames.frame.10.channel_layout="unknown"
packets_and_frames.packet.11.codec_type="audio"
packets_and_frames.packet.11.stream_index=0
packets_and_frames.packet.11.pts=5120
packets_and_frames.packet.11.pts_time="0.116100"
packets_and_frames.packet.11.dts=5120
packets_and_frames.packet.11.dts_time="0.116100"
packets_and_frames.packet.11.duration=1024
packets_and_frames.packet.11.duration_time="0.023220"
packets_and_frames.packet.11.convergence_duration="N/A"
packets_and_frames.packet.11.convergence_duration_time="N/A"
packets_and_frames.packet.11.size="2048"
packets_and_frames.packet.11.pos="792052"
packets_and_frames.packet.11.flags="K"
packets_and_frames.frame.11.media_type="audio"
packets_and_frames.frame.11.key_frame=1
packets_and_frames.frame.11.pkt_pts=5120
packets_and_frames.frame.11.pkt_pts_time="0.116100"
packets_and_frames.frame.11.pkt_dts=5120
packets_and_frames.frame.11.pkt_dts_time="0.116100"
packets_and_frames.frame.11.pkt_duration=1024
packets_and_frames.frame.11.pkt_duration_time="0.023220"
packets_and_frames.frame.11.pkt_pos="792052"
packets_and_frames.frame.11.sample_fmt="s16"
packets_and_frames.frame.11.nb_samples=1024
packets_and_frames.frame.11.channels=1
packets_and_frames.frame.11.channel_layout="unknown"
packets_and_frames.packet.12.codec_type="video"
packets_and_frames.packet.12.stream_index=1
packets_and_frames.packet.12.pts=3
packets_and_frames.packet.12.pts_time="0.120000"
packets_and_frames.packet.12.dts=3
packets_and_frames.packet.12.dts_time="0.120000"
packets_and_frames.packet.12.duration=1
packets_and_frames.packet.12.duration_time="0.040000"
packets_and_frames.packet.12.convergence_duration="N/A"
packets_and_frames.packet.12.convergence_duration_time="N/A"
packets_and_frames.packet.12.size="230400"
packets_and_frames.packet.12.pos="794128"
packets_and_frames.packet.12.flags="K"
packets_and_frames.frame.12.media_type="video"
packets_and_frames.frame.12.key_frame=1
packets_and_frames.frame.12.pkt_pts=3
packets_and_frames.frame.12.pkt_pts_time="0.120000"
packets_and_frames.frame.12.pkt_dts=3
packets_and_frames.frame.12.pkt_dts_time="0.120000"
packets_and_frames.frame.12.pkt_duration=1
packets_and_frames.frame.12.pkt_duration_time="0.040000"
packets_and_frames.frame.12.pkt_pos="794128"
packets_and_frames.frame.12.width=320
packets_and_frames.frame.12.height=240
packets_and_frames.frame.12.pix_fmt="rgb24"
packets_and_frames.frame.12.sample_aspect_ratio="1:1"
packets_and_frames.frame.12.pict_type="I"
packets_and_frames.frame.12.coded_picture_number=0
packets_and_frames.frame.12.display_picture_number=0
packets_and_frames.frame.12.interlaced_frame=0
packets_and_frames.frame.12.top_field_first=0
packets_and_frames.frame.12.repeat_pict=0
packets_and_frames.frame.12.reference=0
packets_and_frames.packet.13.codec_type="video"
packets_and_frames.packet.13.stream_index=2
packets_and_frames.packet.13.pts=3
packets_and_frames.packet.13.pts_time="0.120000"
packets_and_frames.packet.13.dts=3
packets_and_frames.packet.13.dts_time="0.120000"
packets_and_frames.packet.13.duration=1
packets_and_frames.packet.13.duration_time="0.040000"
packets_and_frames.packet.13.convergence_duration="N/A"
packets_and_frames.packet.13.convergence_duration_time="N/A"
packets_and_frames.packet.13.size="30000"
packets_and_frames.packet.13.pos="1024550"
packets_and_frames.packet.13.flags="K"
packets_and_frames.frame.13.media_type="video"
packets_and_frames.frame.13.key_frame=1
packets_and_frames.frame.13.pkt_pts=3
packets_and_frames.frame.13.pkt_pts_time="0.120000"
packets_and_frames.frame.13.pkt_dts=3
packets_and_frames.frame.13.pkt_dts_time="0.120000"
packets_and_frames.frame.13.pkt_duration=1
packets_and_frames.frame.13.pkt_duration_time="0.040000"
packets_and_frames.frame.13.pkt_pos="1024550"
packets_and_frames.frame.13.width=100
packets_and_frames.frame.13.height=100
packets_and_frames.frame.13.pix_fmt="rgb24"
packets_and_frames.frame.13.sample_aspect_ratio="1:1"
packets_and_frames.frame.13.pict_type="I"
packets_and_frames.frame.13.coded_picture_number=0
packets_and_frames.frame.13.display_picture_number=0
packets_and_frames.frame.13.interlaced_frame=0
packets_and_frames.frame.13.top_field_first=0
packets_and_frames.frame.13.repeat_pict=0
packets_and_frames.frame.13.reference=0
streams.stream.0.index=0
streams.stream.0.codec_name="pcm_s16le"
streams.stream.0.profile="unknown"
streams.stream.0.codec_type="audio"
streams.stream.0.codec_time_base="1/44100"
streams.stream.0.codec_tag_string="[1][0][0][0]"
streams.stream.0.codec_tag="0x0001"
streams.stream.0.sample_fmt="s16"
streams.stream.0.sample_rate="44100"
streams.stream.0.channels=1
streams.stream.0.bits_per_sample=16
streams.stream.0.id="N/A"
streams.stream.0.r_frame_rate="0/0"
streams.stream.0.avg_frame_rate="0/0"
streams.stream.0.time_base="1/44100"
streams.stream.0.start_pts=0
streams.stream.0.start_time="0.000000"
streams.stream.0.duration_ts=527313
streams.stream.0.duration="11.957211"
streams.stream.0.bit_rate="705600"
streams.stream.0.nb_frames="N/A"
streams.stream.0.nb_read_frames="6"
streams.stream.0.nb_read_packets="6"
streams.stream.1.index=1
streams.stream.1.codec_name="rawvideo"
streams.stream.1.profile="unknown"
streams.stream.1.codec_type="video"
streams.stream.1.codec_time_base="1/25"
streams.stream.1.codec_tag_string="RGB[24]"
streams.stream.1.codec_tag="0x18424752"
streams.stream.1.width=320
streams.stream.1.height=240
streams.stream.1.has_b_frames=0
streams.stream.1.sample_aspect_ratio="1:1"
streams.stream.1.display_aspect_ratio="4:3"
streams.stream.1.pix_fmt="rgb24"
streams.stream.1.level=-99
streams.stream.1.timecode="N/A"
streams.stream.1.id="N/A"
streams.stream.1.r_frame_rate="25/1"
streams.stream.1.avg_frame_rate="0/0"
streams.stream.1.time_base="1/25"
streams.stream.1.start_pts=0
streams.stream.1.start_time="0.000000"
streams.stream.1.duration_ts=299
streams.stream.1.duration="11.960000"
streams.stream.1.bit_rate="N/A"
streams.stream.1.nb_frames="N/A"
streams.stream.1.nb_read_frames="4"
streams.stream.1.nb_read_packets="4"
streams.stream.2.index=2
streams.stream.2.codec_name="rawvideo"
streams.stream.2.profile="unknown"
streams.stream.2.codec_type="video"
streams.stream.2.codec_time_base="1/25"
streams.stream.2.codec_tag_string="RGB[24]"
streams.stream.2.codec_tag="0x18424752"
streams.stream.2.width=100
streams.stream.2.height=100
streams.stream.2.has_b_frames=0
streams.stream.2.sample_aspect_ratio="1:1"
streams.stream.2.display_aspect_ratio="1:1"
streams.stream.2.pix_fmt="rgb24"
streams.stream.2.level=-99
streams.stream.2.timecode="N/A"
streams.stream.2.id="N/A"
streams.stream.2.r_frame_rate="25/1"
streams.stream.2.avg_frame_rate="0/0"
streams.stream.2.time_base="1/25"
streams.stream.2.start_pts=0
streams.stream.2.start_time="0.000000"
streams.stream.2.duration_ts=299
streams.stream.2.duration="11.960000"
streams.stream.2.bit_rate="N/A"
streams.stream.2.nb_frames="N/A"
streams.stream.2.nb_read_frames="4"
streams.stream.2.nb_read_packets="4"
format.filename="tests/data/ffprobe-test.nut"
format.nb_streams=3
format.format_name="nut"
format.start_time="0.000000"
format.duration="11.960000"
format.size="1054625"
format.bit_rate="705434"
format.tags.title="ffprobe test file"
format.tags.comment="'A comment with CSV, XML & JSON special chars': <tag value=\"x\">"
format.tags.comment2="I ♥ Üñîçød€"
